<svg width="36" height="52" viewBox="0 0 36 52" fill="none" xmlns="http://www.w3.org/2000/svg">
<path d="M21.7358 25.8113L32.434 19.6348L32.434 31.9879L21.7358 25.8113Z" fill="#FF0000" fill-opacity="0.3"/>
<path d="M32.2642 19.6981L21.566 13.5216L21.566 25.8747L32.2642 19.6981Z" fill="#FF0000" fill-opacity="0.7"/>
<path d="M21.7358 7.13207L32.434 0.955511L32.434 13.3086L21.7358 7.13207Z" fill="#FF0000" fill-opacity="0.9"/>
<path d="M32.2642 31.9245L21.566 25.748L21.566 38.1011L32.2642 31.9245Z" fill="#3EC6FF"/>
<path d="M21.7358 38.0377L32.434 31.8612L32.434 44.2143L21.7358 38.0377Z" fill="#229ACC"/>
<path d="M32.2642 44.1509L21.566 37.9744L21.566 50.3275L32.2642 44.1509Z" fill="#229ACC"/>
<path d="M10.8679 44.1509L21.566 37.9744L21.566 50.3275L10.8679 44.1509Z" fill="#32B0E4"/>
<path d="M21.3962 38.0377L10.6981 31.8612L10.6981 44.2143L21.3962 38.0377Z" fill="#2BA6DA"/>
<path d="M8.50491e-08 38.0377L10.6981 31.8612L10.6981 44.2143L8.50491e-08 38.0377Z" fill="#229ACC"/>
</svg>
